<mxfile host="Electron" modified="2024-04-24T15:18:16.346Z" agent="Mozilla/5.0 (Windows NT 10.0; Win64; x64) AppleWebKit/537.36 (KHTML, like Gecko) draw.io/24.2.5 Chrome/120.0.6099.109 Electron/28.1.0 Safari/537.36" etag="MreEEACkpGVXImy9m7Zl" version="24.2.5" type="device" pages="2">
  <diagram id="VXuQ1Augw0Guq6mfTbnl" name="Page-1">
    <mxGraphModel dx="2625" dy="1793" grid="1" gridSize="10" guides="1" tooltips="1" connect="1" arrows="1" fold="1" page="1" pageScale="1" pageWidth="1654" pageHeight="1169" math="0" shadow="0">
      <root>
        <mxCell id="0" />
        <mxCell id="1" parent="0" />
        <mxCell id="uVgYWtlCzEDaqMZw6L-K-1" value="" style="ellipse;html=1;shape=startState;fillColor=#000000;strokeColor=#ff0000;" parent="1" vertex="1">
          <mxGeometry x="454.40999999999997" y="20" width="30" height="30" as="geometry" />
        </mxCell>
        <mxCell id="uVgYWtlCzEDaqMZw6L-K-2" value="" style="edgeStyle=orthogonalEdgeStyle;html=1;verticalAlign=bottom;endArrow=open;endSize=8;strokeColor=#ff0000;rounded=0;" parent="1" source="uVgYWtlCzEDaqMZw6L-K-1" edge="1">
          <mxGeometry relative="1" as="geometry">
            <mxPoint x="469.40999999999997" y="110" as="targetPoint" />
          </mxGeometry>
        </mxCell>
        <mxCell id="rtrRGqQpTpoYwjqOUDVs-1" value="Access Start Page" style="rounded=1;whiteSpace=wrap;html=1;arcSize=40;fontColor=#000000;fillColor=#ffffc0;strokeColor=#ff0000;" parent="1" vertex="1">
          <mxGeometry x="409.40999999999997" y="110" width="120" height="40" as="geometry" />
        </mxCell>
        <mxCell id="rtrRGqQpTpoYwjqOUDVs-2" value="" style="edgeStyle=orthogonalEdgeStyle;html=1;verticalAlign=bottom;endArrow=open;endSize=8;strokeColor=#ff0000;rounded=0;entryX=0.5;entryY=0;entryDx=0;entryDy=0;" parent="1" source="rtrRGqQpTpoYwjqOUDVs-1" target="rtrRGqQpTpoYwjqOUDVs-3" edge="1">
          <mxGeometry relative="1" as="geometry">
            <mxPoint x="270.59000000000003" y="190" as="targetPoint" />
          </mxGeometry>
        </mxCell>
        <mxCell id="rtrRGqQpTpoYwjqOUDVs-3" value="Valid Account" style="rhombus;whiteSpace=wrap;html=1;fontColor=#000000;fillColor=#ffffc0;strokeColor=#ff0000;" parent="1" vertex="1">
          <mxGeometry x="429.4100000000001" y="200" width="81.18" height="70" as="geometry" />
        </mxCell>
        <mxCell id="rtrRGqQpTpoYwjqOUDVs-4" value="no" style="edgeStyle=orthogonalEdgeStyle;html=1;align=left;verticalAlign=bottom;endArrow=open;endSize=8;strokeColor=#ff0000;rounded=0;entryX=1;entryY=0.5;entryDx=0;entryDy=0;" parent="1" source="rtrRGqQpTpoYwjqOUDVs-3" target="rtrRGqQpTpoYwjqOUDVs-7" edge="1">
          <mxGeometry x="0.0872" y="15" relative="1" as="geometry">
            <mxPoint x="350.59000000000003" y="265" as="targetPoint" />
            <mxPoint as="offset" />
          </mxGeometry>
        </mxCell>
        <mxCell id="rtrRGqQpTpoYwjqOUDVs-5" value="yes" style="edgeStyle=orthogonalEdgeStyle;html=1;align=left;verticalAlign=top;endArrow=open;endSize=8;strokeColor=#ff0000;rounded=0;entryX=0.5;entryY=0;entryDx=0;entryDy=0;" parent="1" source="rtrRGqQpTpoYwjqOUDVs-3" target="rtrRGqQpTpoYwjqOUDVs-11" edge="1">
          <mxGeometry x="-1" relative="1" as="geometry">
            <mxPoint x="468.82000000000005" y="370" as="targetPoint" />
          </mxGeometry>
        </mxCell>
        <mxCell id="rtrRGqQpTpoYwjqOUDVs-7" value="Create Account" style="rounded=1;whiteSpace=wrap;html=1;arcSize=40;fontColor=#000000;fillColor=#ffffc0;strokeColor=#ff0000;" parent="1" vertex="1">
          <mxGeometry x="220.58999999999995" y="215" width="120" height="40" as="geometry" />
        </mxCell>
        <mxCell id="rtrRGqQpTpoYwjqOUDVs-10" value="" style="edgeStyle=orthogonalEdgeStyle;html=1;verticalAlign=bottom;endArrow=open;endSize=8;strokeColor=#ff0000;rounded=0;exitX=0.5;exitY=0;exitDx=0;exitDy=0;entryX=0;entryY=0.5;entryDx=0;entryDy=0;" parent="1" source="rtrRGqQpTpoYwjqOUDVs-7" target="rtrRGqQpTpoYwjqOUDVs-1" edge="1">
          <mxGeometry relative="1" as="geometry">
            <mxPoint x="340.59000000000003" y="380" as="targetPoint" />
            <mxPoint x="340.59000000000003" y="310" as="sourcePoint" />
          </mxGeometry>
        </mxCell>
        <mxCell id="rtrRGqQpTpoYwjqOUDVs-11" value="Log In" style="rounded=1;whiteSpace=wrap;html=1;arcSize=40;fontColor=#000000;fillColor=#ffffc0;strokeColor=#ff0000;" parent="1" vertex="1">
          <mxGeometry x="410" y="360" width="120" height="40" as="geometry" />
        </mxCell>
        <mxCell id="rtrRGqQpTpoYwjqOUDVs-12" value="Valid&lt;div&gt;Password&lt;/div&gt;" style="rhombus;whiteSpace=wrap;html=1;fontColor=#000000;fillColor=#ffffc0;strokeColor=#ff0000;" parent="1" vertex="1">
          <mxGeometry x="429.4100000000001" y="450" width="81.18" height="70" as="geometry" />
        </mxCell>
        <mxCell id="rtrRGqQpTpoYwjqOUDVs-13" value="no" style="edgeStyle=orthogonalEdgeStyle;html=1;align=left;verticalAlign=bottom;endArrow=open;endSize=8;strokeColor=#ff0000;rounded=0;entryX=0;entryY=0.5;entryDx=0;entryDy=0;exitX=0;exitY=0.5;exitDx=0;exitDy=0;" parent="1" source="rtrRGqQpTpoYwjqOUDVs-12" target="rtrRGqQpTpoYwjqOUDVs-11" edge="1">
          <mxGeometry x="0.0872" y="15" relative="1" as="geometry">
            <mxPoint x="340.59000000000003" y="495" as="targetPoint" />
            <mxPoint as="offset" />
            <Array as="points">
              <mxPoint x="330.59000000000003" y="485" />
              <mxPoint x="330.59000000000003" y="380" />
            </Array>
          </mxGeometry>
        </mxCell>
        <mxCell id="rtrRGqQpTpoYwjqOUDVs-14" value="yes" style="edgeStyle=orthogonalEdgeStyle;html=1;align=left;verticalAlign=top;endArrow=open;endSize=8;strokeColor=#ff0000;rounded=0;entryX=0.5;entryY=0;entryDx=0;entryDy=0;" parent="1" source="rtrRGqQpTpoYwjqOUDVs-12" target="rtrRGqQpTpoYwjqOUDVs-17" edge="1">
          <mxGeometry x="-1" relative="1" as="geometry">
            <mxPoint x="469.59000000000003" y="630" as="targetPoint" />
          </mxGeometry>
        </mxCell>
        <mxCell id="rtrRGqQpTpoYwjqOUDVs-16" value="" style="edgeStyle=orthogonalEdgeStyle;html=1;align=left;verticalAlign=top;endArrow=open;endSize=8;strokeColor=#ff0000;rounded=0;entryX=0.5;entryY=0;entryDx=0;entryDy=0;exitX=0.5;exitY=1;exitDx=0;exitDy=0;" parent="1" source="rtrRGqQpTpoYwjqOUDVs-11" target="rtrRGqQpTpoYwjqOUDVs-12" edge="1">
          <mxGeometry x="-1" relative="1" as="geometry">
            <mxPoint x="550.59" y="610" as="targetPoint" />
            <mxPoint x="550.59" y="500" as="sourcePoint" />
          </mxGeometry>
        </mxCell>
        <mxCell id="rtrRGqQpTpoYwjqOUDVs-17" value="Access Home Page" style="rounded=1;whiteSpace=wrap;html=1;arcSize=40;fontColor=#000000;fillColor=#ffffc0;strokeColor=#ff0000;" parent="1" vertex="1">
          <mxGeometry x="410" y="590" width="120" height="40" as="geometry" />
        </mxCell>
        <mxCell id="rtrRGqQpTpoYwjqOUDVs-19" value="" style="edgeStyle=orthogonalEdgeStyle;html=1;align=left;verticalAlign=top;endArrow=open;endSize=8;strokeColor=#ff0000;rounded=0;exitX=0.5;exitY=1;exitDx=0;exitDy=0;entryX=0.499;entryY=0.159;entryDx=0;entryDy=0;entryPerimeter=0;" parent="1" source="rtrRGqQpTpoYwjqOUDVs-17" target="rtrRGqQpTpoYwjqOUDVs-21" edge="1">
          <mxGeometry x="-1" relative="1" as="geometry">
            <mxPoint x="540.59" y="680" as="targetPoint" />
            <mxPoint x="500.59000000000003" y="640" as="sourcePoint" />
          </mxGeometry>
        </mxCell>
        <mxCell id="rtrRGqQpTpoYwjqOUDVs-20" value="Play Game" style="rounded=1;whiteSpace=wrap;html=1;arcSize=40;fontColor=#000000;fillColor=#ffffc0;strokeColor=#ff0000;" parent="1" vertex="1">
          <mxGeometry x="890" y="800" width="120" height="40" as="geometry" />
        </mxCell>
        <mxCell id="rtrRGqQpTpoYwjqOUDVs-22" value="" style="edgeStyle=orthogonalEdgeStyle;html=1;verticalAlign=bottom;endArrow=open;endSize=8;strokeColor=#ff0000;rounded=0;entryX=0.5;entryY=0;entryDx=0;entryDy=0;exitX=0.927;exitY=0.529;exitDx=0;exitDy=0;exitPerimeter=0;" parent="1" target="rtrRGqQpTpoYwjqOUDVs-20" edge="1">
          <mxGeometry relative="1" as="geometry">
            <mxPoint x="950.5900000000001" y="837.8000000000001" as="targetPoint" />
            <mxPoint x="949.9200000000001" y="705.29" as="sourcePoint" />
          </mxGeometry>
        </mxCell>
        <mxCell id="rtrRGqQpTpoYwjqOUDVs-23" value="Access Settings" style="rounded=1;whiteSpace=wrap;html=1;arcSize=40;fontColor=#000000;fillColor=#ffffc0;strokeColor=#ff0000;" parent="1" vertex="1">
          <mxGeometry x="129.99999999999994" y="773" width="120" height="40" as="geometry" />
        </mxCell>
        <mxCell id="rtrRGqQpTpoYwjqOUDVs-25" value="Access Leaderboard" style="rounded=1;whiteSpace=wrap;html=1;arcSize=40;fontColor=#000000;fillColor=#ffffc0;strokeColor=#ff0000;" parent="1" vertex="1">
          <mxGeometry x="280" y="771.82" width="120" height="40" as="geometry" />
        </mxCell>
        <mxCell id="rtrRGqQpTpoYwjqOUDVs-26" value="" style="edgeStyle=orthogonalEdgeStyle;html=1;verticalAlign=bottom;endArrow=open;endSize=8;strokeColor=#ff0000;rounded=0;entryX=0.5;entryY=0;entryDx=0;entryDy=0;exitX=0.464;exitY=0.654;exitDx=0;exitDy=0;exitPerimeter=0;" parent="1" target="rtrRGqQpTpoYwjqOUDVs-25" edge="1">
          <mxGeometry relative="1" as="geometry">
            <mxPoint x="390.03999999999996" y="807.3199999999999" as="targetPoint" />
            <mxPoint x="340.4399999999998" y="706.54" as="sourcePoint" />
            <Array as="points">
              <mxPoint x="340" y="748" />
            </Array>
          </mxGeometry>
        </mxCell>
        <mxCell id="rtrRGqQpTpoYwjqOUDVs-27" value="Customize Character" style="rounded=1;whiteSpace=wrap;html=1;arcSize=40;fontColor=#000000;fillColor=#ffffc0;strokeColor=#ff0000;" parent="1" vertex="1">
          <mxGeometry x="430.00000000000006" y="771.82" width="120" height="40" as="geometry" />
        </mxCell>
        <mxCell id="rtrRGqQpTpoYwjqOUDVs-29" style="edgeStyle=orthogonalEdgeStyle;rounded=0;orthogonalLoop=1;jettySize=auto;html=1;exitX=0.5;exitY=1;exitDx=0;exitDy=0;" parent="1" source="rtrRGqQpTpoYwjqOUDVs-25" target="rtrRGqQpTpoYwjqOUDVs-25" edge="1">
          <mxGeometry relative="1" as="geometry" />
        </mxCell>
        <mxCell id="rtrRGqQpTpoYwjqOUDVs-21" value="" style="shape=line;html=1;strokeWidth=6;strokeColor=#ff0000;" parent="1" vertex="1">
          <mxGeometry x="130" y="700" width="960" height="10" as="geometry" />
        </mxCell>
        <mxCell id="rtrRGqQpTpoYwjqOUDVs-32" value="" style="edgeStyle=orthogonalEdgeStyle;html=1;verticalAlign=bottom;endArrow=open;endSize=8;strokeColor=#ff0000;rounded=0;entryX=0.5;entryY=0;entryDx=0;entryDy=0;exitX=0.5;exitY=1;exitDx=0;exitDy=0;" parent="1" source="rtrRGqQpTpoYwjqOUDVs-20" edge="1">
          <mxGeometry relative="1" as="geometry">
            <mxPoint x="950" y="866.8200000000002" as="targetPoint" />
            <mxPoint x="958.25" y="866.49" as="sourcePoint" />
          </mxGeometry>
        </mxCell>
        <mxCell id="rtrRGqQpTpoYwjqOUDVs-34" value="" style="edgeStyle=orthogonalEdgeStyle;html=1;verticalAlign=bottom;endArrow=open;endSize=8;strokeColor=#ff0000;rounded=0;entryX=0;entryY=0.5;entryDx=0;entryDy=0;exitX=0;exitY=0.5;exitDx=0;exitDy=0;" parent="1" source="0AmZF3lFyV2eBW2hPW2H-61" target="rtrRGqQpTpoYwjqOUDVs-17" edge="1">
          <mxGeometry relative="1" as="geometry">
            <mxPoint x="339.36999999999966" y="1212.2800000000002" as="targetPoint" />
            <mxPoint x="348.07000000000005" y="880" as="sourcePoint" />
            <Array as="points">
              <mxPoint x="10" y="1140" />
              <mxPoint x="10" y="610" />
            </Array>
          </mxGeometry>
        </mxCell>
        <mxCell id="fUx_yHsOXqdxV9NH5imY-1" value="Player" style="text;align=center;fontStyle=1;verticalAlign=middle;spacingLeft=3;spacingRight=3;strokeColor=none;rotatable=0;points=[[0,0.5],[1,0.5]];portConstraint=eastwest;html=1;fontSize=22;" parent="1" vertex="1">
          <mxGeometry x="90" y="24" width="80" height="26" as="geometry" />
        </mxCell>
        <mxCell id="0AmZF3lFyV2eBW2hPW2H-7" value="Quit" style="rounded=1;whiteSpace=wrap;html=1;arcSize=40;fontColor=#000000;fillColor=#ffffc0;strokeColor=#ff0000;" parent="1" vertex="1">
          <mxGeometry x="584.41" y="771.82" width="120" height="40" as="geometry" />
        </mxCell>
        <mxCell id="0AmZF3lFyV2eBW2hPW2H-9" value="" style="ellipse;html=1;shape=endState;fillColor=#000000;strokeColor=#ff0000;" parent="1" vertex="1">
          <mxGeometry x="629.41" y="900" width="30" height="30" as="geometry" />
        </mxCell>
        <mxCell id="0AmZF3lFyV2eBW2hPW2H-10" value="" style="edgeStyle=orthogonalEdgeStyle;html=1;verticalAlign=bottom;endArrow=open;endSize=8;strokeColor=#ff0000;rounded=0;exitX=0.5;exitY=1;exitDx=0;exitDy=0;entryX=0.5;entryY=0;entryDx=0;entryDy=0;" parent="1" source="0AmZF3lFyV2eBW2hPW2H-7" target="0AmZF3lFyV2eBW2hPW2H-9" edge="1">
          <mxGeometry relative="1" as="geometry">
            <mxPoint x="584.41" y="1255" as="targetPoint" />
            <mxPoint x="584.41" y="870" as="sourcePoint" />
            <Array as="points">
              <mxPoint x="644.41" y="860" />
              <mxPoint x="644.41" y="860" />
            </Array>
          </mxGeometry>
        </mxCell>
        <mxCell id="0AmZF3lFyV2eBW2hPW2H-19" value="" style="edgeStyle=orthogonalEdgeStyle;html=1;verticalAlign=bottom;endArrow=open;endSize=8;strokeColor=#ff0000;rounded=0;entryX=0.5;entryY=0;entryDx=0;entryDy=0;exitX=0.063;exitY=0.737;exitDx=0;exitDy=0;exitPerimeter=0;" parent="1" source="rtrRGqQpTpoYwjqOUDVs-21" target="rtrRGqQpTpoYwjqOUDVs-23" edge="1">
          <mxGeometry relative="1" as="geometry">
            <mxPoint x="36" y="820" as="targetPoint" />
            <mxPoint x="170.4000000000001" y="700.0000000000002" as="sourcePoint" />
          </mxGeometry>
        </mxCell>
        <mxCell id="0AmZF3lFyV2eBW2hPW2H-21" value="Change Settings" style="rounded=1;whiteSpace=wrap;html=1;arcSize=40;fontColor=#000000;fillColor=#ffffc0;strokeColor=#ff0000;" parent="1" vertex="1">
          <mxGeometry x="129.99999999999994" y="868" width="120" height="40" as="geometry" />
        </mxCell>
        <mxCell id="0AmZF3lFyV2eBW2hPW2H-22" value="" style="edgeStyle=orthogonalEdgeStyle;html=1;verticalAlign=bottom;endArrow=open;endSize=8;strokeColor=#ff0000;rounded=0;entryX=0.5;entryY=0;entryDx=0;entryDy=0;exitX=0.497;exitY=0.968;exitDx=0;exitDy=0;exitPerimeter=0;" parent="1" source="rtrRGqQpTpoYwjqOUDVs-23" target="0AmZF3lFyV2eBW2hPW2H-21" edge="1">
          <mxGeometry relative="1" as="geometry">
            <mxPoint x="212.15999999999997" y="891.72" as="targetPoint" />
            <mxPoint x="209.9999999999999" y="823" as="sourcePoint" />
            <Array as="points">
              <mxPoint x="190" y="823" />
              <mxPoint x="190" y="823" />
            </Array>
          </mxGeometry>
        </mxCell>
        <mxCell id="0AmZF3lFyV2eBW2hPW2H-24" value="" style="edgeStyle=orthogonalEdgeStyle;html=1;verticalAlign=bottom;endArrow=open;endSize=8;strokeColor=#ff0000;rounded=0;entryX=0.5;entryY=0;entryDx=0;entryDy=0;exitX=0.5;exitY=1;exitDx=0;exitDy=0;" parent="1" source="0AmZF3lFyV2eBW2hPW2H-21" target="0AmZF3lFyV2eBW2hPW2H-30" edge="1">
          <mxGeometry relative="1" as="geometry">
            <mxPoint x="190" y="963" as="targetPoint" />
            <mxPoint x="230" y="932" as="sourcePoint" />
            <Array as="points" />
          </mxGeometry>
        </mxCell>
        <mxCell id="0AmZF3lFyV2eBW2hPW2H-30" value="Confirm&lt;div&gt;Settings&lt;/div&gt;" style="rhombus;whiteSpace=wrap;html=1;fontColor=#000000;fillColor=#ffffc0;strokeColor=#ff0000;" parent="1" vertex="1">
          <mxGeometry x="149.41000000000005" y="963" width="81.18" height="70" as="geometry" />
        </mxCell>
        <mxCell id="0AmZF3lFyV2eBW2hPW2H-33" value="" style="edgeStyle=orthogonalEdgeStyle;html=1;verticalAlign=bottom;endArrow=open;endSize=8;strokeColor=#ff0000;rounded=0;entryX=0;entryY=0.5;entryDx=0;entryDy=0;exitX=0;exitY=0.5;exitDx=0;exitDy=0;" parent="1" source="0AmZF3lFyV2eBW2hPW2H-30" target="0AmZF3lFyV2eBW2hPW2H-21" edge="1">
          <mxGeometry relative="1" as="geometry">
            <mxPoint x="200" y="973" as="targetPoint" />
            <mxPoint x="200" y="918" as="sourcePoint" />
            <Array as="points">
              <mxPoint x="80" y="998" />
              <mxPoint x="80" y="888" />
            </Array>
          </mxGeometry>
        </mxCell>
        <mxCell id="0AmZF3lFyV2eBW2hPW2H-34" value="Settings Not OK" style="edgeLabel;html=1;align=center;verticalAlign=middle;resizable=0;points=[];" parent="0AmZF3lFyV2eBW2hPW2H-33" vertex="1" connectable="0">
          <mxGeometry x="-0.2248" relative="1" as="geometry">
            <mxPoint x="10" y="-25" as="offset" />
          </mxGeometry>
        </mxCell>
        <mxCell id="0AmZF3lFyV2eBW2hPW2H-38" value="" style="edgeStyle=orthogonalEdgeStyle;html=1;verticalAlign=bottom;endArrow=open;endSize=8;strokeColor=#ff0000;rounded=0;entryX=0.5;entryY=0;entryDx=0;entryDy=0;exitX=0.464;exitY=0.654;exitDx=0;exitDy=0;exitPerimeter=0;" parent="1" target="0AmZF3lFyV2eBW2hPW2H-7" edge="1">
          <mxGeometry relative="1" as="geometry">
            <mxPoint x="644.18" y="768.82" as="targetPoint" />
            <mxPoint x="644.6199999999998" y="703.36" as="sourcePoint" />
            <Array as="points">
              <mxPoint x="645" y="740" />
              <mxPoint x="644" y="740" />
            </Array>
          </mxGeometry>
        </mxCell>
        <mxCell id="0AmZF3lFyV2eBW2hPW2H-39" value="Pause the game" style="rounded=1;whiteSpace=wrap;html=1;arcSize=40;fontColor=#000000;fillColor=#ffffc0;strokeColor=#ff0000;" parent="1" vertex="1">
          <mxGeometry x="720" y="963" width="120" height="40" as="geometry" />
        </mxCell>
        <mxCell id="0AmZF3lFyV2eBW2hPW2H-43" value="" style="shape=line;html=1;strokeWidth=6;strokeColor=#ff0000;" parent="1" vertex="1">
          <mxGeometry x="770" y="868" width="360" height="10" as="geometry" />
        </mxCell>
        <mxCell id="0AmZF3lFyV2eBW2hPW2H-44" value="" style="edgeStyle=orthogonalEdgeStyle;html=1;verticalAlign=bottom;endArrow=open;endSize=8;strokeColor=#ff0000;rounded=0;entryX=0.5;entryY=0;entryDx=0;entryDy=0;exitX=0.25;exitY=0.5;exitDx=0;exitDy=0;exitPerimeter=0;" parent="1" source="0AmZF3lFyV2eBW2hPW2H-43" target="0AmZF3lFyV2eBW2hPW2H-39" edge="1">
          <mxGeometry relative="1" as="geometry">
            <mxPoint x="870" y="948" as="targetPoint" />
          </mxGeometry>
        </mxCell>
        <mxCell id="0AmZF3lFyV2eBW2hPW2H-47" value="Finish the Level" style="rounded=1;whiteSpace=wrap;html=1;arcSize=40;fontColor=#000000;fillColor=#ffffc0;strokeColor=#ff0000;" parent="1" vertex="1">
          <mxGeometry x="890" y="960" width="120" height="40" as="geometry" />
        </mxCell>
        <mxCell id="0AmZF3lFyV2eBW2hPW2H-48" value="Return to Home Page" style="rounded=1;whiteSpace=wrap;html=1;arcSize=40;fontColor=#000000;fillColor=#ffffc0;strokeColor=#ff0000;" parent="1" vertex="1">
          <mxGeometry x="1050" y="960" width="120" height="40" as="geometry" />
        </mxCell>
        <mxCell id="0AmZF3lFyV2eBW2hPW2H-49" value="" style="edgeStyle=orthogonalEdgeStyle;html=1;verticalAlign=bottom;endArrow=open;endSize=8;strokeColor=#ff0000;rounded=0;entryX=0.5;entryY=0;entryDx=0;entryDy=0;exitX=0.5;exitY=0.813;exitDx=0;exitDy=0;exitPerimeter=0;" parent="1" source="0AmZF3lFyV2eBW2hPW2H-43" target="0AmZF3lFyV2eBW2hPW2H-47" edge="1">
          <mxGeometry relative="1" as="geometry">
            <mxPoint x="790" y="960" as="targetPoint" />
            <mxPoint x="870" y="883" as="sourcePoint" />
          </mxGeometry>
        </mxCell>
        <mxCell id="0AmZF3lFyV2eBW2hPW2H-50" value="" style="edgeStyle=orthogonalEdgeStyle;html=1;verticalAlign=bottom;endArrow=open;endSize=8;strokeColor=#ff0000;rounded=0;exitX=0.75;exitY=0.5;exitDx=0;exitDy=0;exitPerimeter=0;" parent="1" source="0AmZF3lFyV2eBW2hPW2H-43" target="0AmZF3lFyV2eBW2hPW2H-48" edge="1">
          <mxGeometry relative="1" as="geometry">
            <mxPoint x="960" y="960" as="targetPoint" />
            <mxPoint x="961" y="883" as="sourcePoint" />
          </mxGeometry>
        </mxCell>
        <mxCell id="0AmZF3lFyV2eBW2hPW2H-51" value="" style="edgeStyle=orthogonalEdgeStyle;html=1;verticalAlign=bottom;endArrow=open;endSize=8;strokeColor=#ff0000;rounded=0;entryX=0.5;entryY=0;entryDx=0;entryDy=0;exitX=0.375;exitY=0.231;exitDx=0;exitDy=0;exitPerimeter=0;" parent="1" source="rtrRGqQpTpoYwjqOUDVs-21" target="rtrRGqQpTpoYwjqOUDVs-27" edge="1">
          <mxGeometry relative="1" as="geometry">
            <mxPoint x="489.69" y="768.64" as="targetPoint" />
            <mxPoint x="490" y="710" as="sourcePoint" />
            <Array as="points" />
          </mxGeometry>
        </mxCell>
        <mxCell id="0AmZF3lFyV2eBW2hPW2H-52" value="" style="edgeStyle=orthogonalEdgeStyle;html=1;verticalAlign=bottom;endArrow=open;endSize=8;strokeColor=#ff0000;rounded=0;entryX=0;entryY=0.5;entryDx=0;entryDy=0;exitX=0;exitY=0.5;exitDx=0;exitDy=0;" parent="1" source="0AmZF3lFyV2eBW2hPW2H-42" target="rtrRGqQpTpoYwjqOUDVs-20" edge="1">
          <mxGeometry relative="1" as="geometry">
            <mxPoint x="779.64" y="1104" as="targetPoint" />
            <mxPoint x="779.64" y="1020" as="sourcePoint" />
            <Array as="points">
              <mxPoint x="700" y="1095" />
              <mxPoint x="700" y="820" />
            </Array>
          </mxGeometry>
        </mxCell>
        <mxCell id="0AmZF3lFyV2eBW2hPW2H-55" value="Yes" style="edgeLabel;html=1;align=center;verticalAlign=middle;resizable=0;points=[];" parent="0AmZF3lFyV2eBW2hPW2H-52" vertex="1" connectable="0">
          <mxGeometry x="-0.5175" y="3" relative="1" as="geometry">
            <mxPoint y="-1" as="offset" />
          </mxGeometry>
        </mxCell>
        <mxCell id="0AmZF3lFyV2eBW2hPW2H-53" value="" style="edgeStyle=orthogonalEdgeStyle;html=1;verticalAlign=bottom;endArrow=open;endSize=8;strokeColor=#ff0000;rounded=0;entryX=0.5;entryY=0;entryDx=0;entryDy=0;exitX=0.5;exitY=1;exitDx=0;exitDy=0;" parent="1" source="0AmZF3lFyV2eBW2hPW2H-39" target="0AmZF3lFyV2eBW2hPW2H-42" edge="1">
          <mxGeometry relative="1" as="geometry">
            <mxPoint x="780" y="1213" as="targetPoint" />
            <mxPoint x="780" y="1003" as="sourcePoint" />
          </mxGeometry>
        </mxCell>
        <mxCell id="0AmZF3lFyV2eBW2hPW2H-42" value="Continue the game" style="rhombus;whiteSpace=wrap;html=1;fontColor=#000000;fillColor=#ffffc0;strokeColor=#ff0000;" parent="1" vertex="1">
          <mxGeometry x="729.7099999999999" y="1050" width="100.59" height="90" as="geometry" />
        </mxCell>
        <mxCell id="0AmZF3lFyV2eBW2hPW2H-54" value="" style="edgeStyle=orthogonalEdgeStyle;html=1;verticalAlign=bottom;endArrow=open;endSize=8;strokeColor=#ff0000;rounded=0;entryX=0.5;entryY=1;entryDx=0;entryDy=0;exitX=1;exitY=0.5;exitDx=0;exitDy=0;" parent="1" source="0AmZF3lFyV2eBW2hPW2H-42" target="0AmZF3lFyV2eBW2hPW2H-48" edge="1">
          <mxGeometry relative="1" as="geometry">
            <mxPoint x="690" y="1037" as="targetPoint" />
            <mxPoint x="690" y="990" as="sourcePoint" />
          </mxGeometry>
        </mxCell>
        <mxCell id="0AmZF3lFyV2eBW2hPW2H-56" value="No" style="edgeLabel;html=1;align=center;verticalAlign=middle;resizable=0;points=[];" parent="0AmZF3lFyV2eBW2hPW2H-54" vertex="1" connectable="0">
          <mxGeometry x="0.3631" y="1" relative="1" as="geometry">
            <mxPoint as="offset" />
          </mxGeometry>
        </mxCell>
        <mxCell id="0AmZF3lFyV2eBW2hPW2H-57" value="" style="edgeStyle=orthogonalEdgeStyle;html=1;verticalAlign=bottom;endArrow=open;endSize=8;strokeColor=#ff0000;rounded=0;entryX=0;entryY=0.5;entryDx=0;entryDy=0;exitX=1;exitY=0.5;exitDx=0;exitDy=0;" parent="1" source="0AmZF3lFyV2eBW2hPW2H-47" target="0AmZF3lFyV2eBW2hPW2H-48" edge="1">
          <mxGeometry relative="1" as="geometry">
            <mxPoint x="1020" y="1094" as="targetPoint" />
            <mxPoint x="1020" y="1010" as="sourcePoint" />
          </mxGeometry>
        </mxCell>
        <mxCell id="0AmZF3lFyV2eBW2hPW2H-58" value="" style="edgeStyle=orthogonalEdgeStyle;html=1;verticalAlign=bottom;endArrow=open;endSize=8;strokeColor=#ff0000;rounded=0;exitX=1;exitY=0.5;exitDx=0;exitDy=0;entryX=1;entryY=0.5;entryDx=0;entryDy=0;" parent="1" source="0AmZF3lFyV2eBW2hPW2H-48" target="rtrRGqQpTpoYwjqOUDVs-17" edge="1">
          <mxGeometry relative="1" as="geometry">
            <mxPoint x="1193" y="900" as="targetPoint" />
            <mxPoint x="1123" y="813" as="sourcePoint" />
            <Array as="points">
              <mxPoint x="1190" y="980" />
              <mxPoint x="1190" y="610" />
            </Array>
          </mxGeometry>
        </mxCell>
        <mxCell id="0AmZF3lFyV2eBW2hPW2H-61" value="Return to Home Page" style="rounded=1;whiteSpace=wrap;html=1;arcSize=40;fontColor=#000000;fillColor=#ffffc0;strokeColor=#ff0000;" parent="1" vertex="1">
          <mxGeometry x="280" y="1120" width="120" height="40" as="geometry" />
        </mxCell>
        <mxCell id="0AmZF3lFyV2eBW2hPW2H-117" style="edgeStyle=orthogonalEdgeStyle;rounded=0;orthogonalLoop=1;jettySize=auto;html=1;exitX=0.5;exitY=1;exitDx=0;exitDy=0;" parent="1" edge="1">
          <mxGeometry relative="1" as="geometry">
            <mxPoint x="339.4100000000001" y="812" as="sourcePoint" />
            <mxPoint x="339.4100000000001" y="812" as="targetPoint" />
          </mxGeometry>
        </mxCell>
        <mxCell id="0AmZF3lFyV2eBW2hPW2H-118" value="" style="edgeStyle=orthogonalEdgeStyle;html=1;verticalAlign=bottom;endArrow=open;endSize=8;strokeColor=#ff0000;rounded=0;exitX=0.5;exitY=1;exitDx=0;exitDy=0;entryX=1;entryY=0.5;entryDx=0;entryDy=0;" parent="1" source="0AmZF3lFyV2eBW2hPW2H-122" target="0AmZF3lFyV2eBW2hPW2H-61" edge="1">
          <mxGeometry relative="1" as="geometry">
            <mxPoint x="399.4100000000001" y="1140" as="targetPoint" />
            <mxPoint x="489.4100000000001" y="812" as="sourcePoint" />
            <Array as="points">
              <mxPoint x="489" y="1140" />
            </Array>
          </mxGeometry>
        </mxCell>
        <mxCell id="0AmZF3lFyV2eBW2hPW2H-119" value="" style="edgeStyle=orthogonalEdgeStyle;html=1;verticalAlign=bottom;endArrow=open;endSize=8;strokeColor=#ff0000;rounded=0;entryX=0.5;entryY=0;entryDx=0;entryDy=0;exitX=0.5;exitY=1;exitDx=0;exitDy=0;" parent="1" target="0AmZF3lFyV2eBW2hPW2H-61" edge="1">
          <mxGeometry relative="1" as="geometry">
            <mxPoint x="339.4100000000001" y="1120" as="targetPoint" />
            <mxPoint x="339.4100000000001" y="812" as="sourcePoint" />
          </mxGeometry>
        </mxCell>
        <mxCell id="0AmZF3lFyV2eBW2hPW2H-120" value="Changes OK" style="edgeLabel;html=1;align=center;verticalAlign=middle;resizable=0;points=[];" parent="1" vertex="1" connectable="0">
          <mxGeometry x="489.4071428571424" y="1111" as="geometry" />
        </mxCell>
        <mxCell id="0AmZF3lFyV2eBW2hPW2H-121" value="" style="edgeStyle=orthogonalEdgeStyle;html=1;verticalAlign=bottom;endArrow=open;endSize=8;strokeColor=#ff0000;rounded=0;entryX=0.5;entryY=0;entryDx=0;entryDy=0;exitX=0.5;exitY=1;exitDx=0;exitDy=0;" parent="1" target="0AmZF3lFyV2eBW2hPW2H-122" edge="1">
          <mxGeometry relative="1" as="geometry">
            <mxPoint x="489.4100000000001" y="963" as="targetPoint" />
            <mxPoint x="489.4100000000001" y="812" as="sourcePoint" />
            <Array as="points" />
          </mxGeometry>
        </mxCell>
        <mxCell id="0AmZF3lFyV2eBW2hPW2H-122" value="Confirm changes" style="rhombus;whiteSpace=wrap;html=1;fontColor=#000000;fillColor=#ffffc0;strokeColor=#ff0000;" parent="1" vertex="1">
          <mxGeometry x="448.82000000000016" y="963" width="81.18" height="70" as="geometry" />
        </mxCell>
        <mxCell id="0AmZF3lFyV2eBW2hPW2H-123" value="" style="edgeStyle=orthogonalEdgeStyle;html=1;verticalAlign=bottom;endArrow=open;endSize=8;strokeColor=#ff0000;rounded=0;entryX=0.25;entryY=1;entryDx=0;entryDy=0;exitX=0;exitY=0.5;exitDx=0;exitDy=0;" parent="1" source="0AmZF3lFyV2eBW2hPW2H-122" edge="1">
          <mxGeometry relative="1" as="geometry">
            <mxPoint x="459.4100000000001" y="812" as="targetPoint" />
            <mxPoint x="499.4100000000001" y="918" as="sourcePoint" />
            <Array as="points">
              <mxPoint x="379.4100000000001" y="998" />
              <mxPoint x="379.4100000000001" y="888" />
              <mxPoint x="459.4100000000001" y="888" />
            </Array>
          </mxGeometry>
        </mxCell>
        <mxCell id="0AmZF3lFyV2eBW2hPW2H-124" value="Change not Ok" style="edgeLabel;html=1;align=center;verticalAlign=middle;resizable=0;points=[];" parent="0AmZF3lFyV2eBW2hPW2H-123" vertex="1" connectable="0">
          <mxGeometry x="-0.2248" relative="1" as="geometry">
            <mxPoint x="20" y="-22" as="offset" />
          </mxGeometry>
        </mxCell>
        <mxCell id="0AmZF3lFyV2eBW2hPW2H-125" value="" style="edgeStyle=orthogonalEdgeStyle;html=1;verticalAlign=bottom;endArrow=open;endSize=8;strokeColor=#ff0000;rounded=0;entryX=0.25;entryY=0;entryDx=0;entryDy=0;exitX=0.5;exitY=1;exitDx=0;exitDy=0;" parent="1" target="0AmZF3lFyV2eBW2hPW2H-61" edge="1">
          <mxGeometry relative="1" as="geometry">
            <mxPoint x="309.4100000000001" y="1120" as="targetPoint" />
            <mxPoint x="189.41000000000008" y="1033" as="sourcePoint" />
            <Array as="points" />
          </mxGeometry>
        </mxCell>
        <mxCell id="0AmZF3lFyV2eBW2hPW2H-126" value="&lt;div&gt;Settings OK&lt;/div&gt;" style="edgeLabel;html=1;align=center;verticalAlign=middle;resizable=0;points=[];" parent="0AmZF3lFyV2eBW2hPW2H-125" vertex="1" connectable="0">
          <mxGeometry x="-0.3253" y="4" relative="1" as="geometry">
            <mxPoint x="34" as="offset" />
          </mxGeometry>
        </mxCell>
      </root>
    </mxGraphModel>
  </diagram>
  <diagram id="t7w3SXHvDpQXgNv2dVJ-" name="Page-2">
    <mxGraphModel dx="3500" dy="2390" grid="1" gridSize="10" guides="1" tooltips="1" connect="1" arrows="1" fold="1" page="1" pageScale="1" pageWidth="1800" pageHeight="1500" math="0" shadow="0">
      <root>
        <mxCell id="0" />
        <mxCell id="1" parent="0" />
        <mxCell id="ennKq5sClsZa2-RZur2d-1" value="" style="ellipse;html=1;shape=startState;fillColor=#000000;strokeColor=#ff0000;" vertex="1" parent="1">
          <mxGeometry x="490.40999999999985" y="50" width="30" height="30" as="geometry" />
        </mxCell>
        <mxCell id="ennKq5sClsZa2-RZur2d-2" value="" style="edgeStyle=orthogonalEdgeStyle;html=1;verticalAlign=bottom;endArrow=open;endSize=8;strokeColor=#ff0000;rounded=0;" edge="1" parent="1" source="ennKq5sClsZa2-RZur2d-1">
          <mxGeometry relative="1" as="geometry">
            <mxPoint x="505.40999999999985" y="140" as="targetPoint" />
          </mxGeometry>
        </mxCell>
        <mxCell id="ennKq5sClsZa2-RZur2d-3" value="Access Start Page" style="rounded=1;whiteSpace=wrap;html=1;arcSize=40;fontColor=#000000;fillColor=#ffffc0;strokeColor=#ff0000;" vertex="1" parent="1">
          <mxGeometry x="445.40999999999985" y="140" width="120" height="40" as="geometry" />
        </mxCell>
        <mxCell id="ennKq5sClsZa2-RZur2d-4" value="" style="edgeStyle=orthogonalEdgeStyle;html=1;verticalAlign=bottom;endArrow=open;endSize=8;strokeColor=#ff0000;rounded=0;entryX=0.5;entryY=0;entryDx=0;entryDy=0;" edge="1" parent="1" source="ennKq5sClsZa2-RZur2d-3" target="ennKq5sClsZa2-RZur2d-5">
          <mxGeometry relative="1" as="geometry">
            <mxPoint x="306.59000000000015" y="220" as="targetPoint" />
          </mxGeometry>
        </mxCell>
        <mxCell id="ennKq5sClsZa2-RZur2d-5" value="Valid Account" style="rhombus;whiteSpace=wrap;html=1;fontColor=#000000;fillColor=#ffffc0;strokeColor=#ff0000;" vertex="1" parent="1">
          <mxGeometry x="465.4100000000001" y="230" width="81.18" height="70" as="geometry" />
        </mxCell>
        <mxCell id="ennKq5sClsZa2-RZur2d-6" value="no" style="edgeStyle=orthogonalEdgeStyle;html=1;align=left;verticalAlign=bottom;endArrow=open;endSize=8;strokeColor=#ff0000;rounded=0;entryX=0;entryY=0.5;entryDx=0;entryDy=0;exitX=0;exitY=0.5;exitDx=0;exitDy=0;" edge="1" parent="1" source="ennKq5sClsZa2-RZur2d-5" target="ennKq5sClsZa2-RZur2d-3">
          <mxGeometry x="0.0881" relative="1" as="geometry">
            <mxPoint x="376.5899999999999" y="265" as="targetPoint" />
            <mxPoint as="offset" />
            <Array as="points">
              <mxPoint x="366" y="265" />
              <mxPoint x="366" y="160" />
            </Array>
          </mxGeometry>
        </mxCell>
        <mxCell id="ennKq5sClsZa2-RZur2d-7" value="yes" style="edgeStyle=orthogonalEdgeStyle;html=1;align=left;verticalAlign=top;endArrow=open;endSize=8;strokeColor=#ff0000;rounded=0;entryX=0.5;entryY=0;entryDx=0;entryDy=0;" edge="1" parent="1" source="ennKq5sClsZa2-RZur2d-5" target="ennKq5sClsZa2-RZur2d-8">
          <mxGeometry x="-1" relative="1" as="geometry">
            <mxPoint x="504.82000000000016" y="400" as="targetPoint" />
          </mxGeometry>
        </mxCell>
        <mxCell id="ennKq5sClsZa2-RZur2d-8" value="Log In" style="rounded=1;whiteSpace=wrap;html=1;arcSize=40;fontColor=#000000;fillColor=#ffffc0;strokeColor=#ff0000;" vertex="1" parent="1">
          <mxGeometry x="446" y="390" width="120" height="40" as="geometry" />
        </mxCell>
        <mxCell id="ennKq5sClsZa2-RZur2d-9" value="Valid&lt;div&gt;Password&lt;/div&gt;" style="rhombus;whiteSpace=wrap;html=1;fontColor=#000000;fillColor=#ffffc0;strokeColor=#ff0000;" vertex="1" parent="1">
          <mxGeometry x="465.4100000000001" y="480" width="81.18" height="70" as="geometry" />
        </mxCell>
        <mxCell id="ennKq5sClsZa2-RZur2d-10" value="no" style="edgeStyle=orthogonalEdgeStyle;html=1;align=left;verticalAlign=bottom;endArrow=open;endSize=8;strokeColor=#ff0000;rounded=0;entryX=0;entryY=0.5;entryDx=0;entryDy=0;exitX=0;exitY=0.5;exitDx=0;exitDy=0;" edge="1" parent="1" source="ennKq5sClsZa2-RZur2d-9" target="ennKq5sClsZa2-RZur2d-8">
          <mxGeometry x="0.0872" y="15" relative="1" as="geometry">
            <mxPoint x="376.59000000000015" y="525" as="targetPoint" />
            <mxPoint as="offset" />
            <Array as="points">
              <mxPoint x="366.59000000000015" y="515" />
              <mxPoint x="366.59000000000015" y="410" />
            </Array>
          </mxGeometry>
        </mxCell>
        <mxCell id="ennKq5sClsZa2-RZur2d-11" value="yes" style="edgeStyle=orthogonalEdgeStyle;html=1;align=left;verticalAlign=top;endArrow=open;endSize=8;strokeColor=#ff0000;rounded=0;entryX=0.5;entryY=0;entryDx=0;entryDy=0;" edge="1" parent="1" source="ennKq5sClsZa2-RZur2d-9">
          <mxGeometry x="-1" relative="1" as="geometry">
            <mxPoint x="506" y="620" as="targetPoint" />
          </mxGeometry>
        </mxCell>
        <mxCell id="ennKq5sClsZa2-RZur2d-12" value="" style="edgeStyle=orthogonalEdgeStyle;html=1;align=left;verticalAlign=top;endArrow=open;endSize=8;strokeColor=#ff0000;rounded=0;entryX=0.5;entryY=0;entryDx=0;entryDy=0;exitX=0.5;exitY=1;exitDx=0;exitDy=0;" edge="1" parent="1" source="ennKq5sClsZa2-RZur2d-8" target="ennKq5sClsZa2-RZur2d-9">
          <mxGeometry x="-1" relative="1" as="geometry">
            <mxPoint x="586.5900000000001" y="640" as="targetPoint" />
            <mxPoint x="586.5900000000001" y="530" as="sourcePoint" />
          </mxGeometry>
        </mxCell>
        <mxCell id="ennKq5sClsZa2-RZur2d-13" value="Admin" style="text;align=center;fontStyle=1;verticalAlign=middle;spacingLeft=3;spacingRight=3;strokeColor=none;rotatable=0;points=[[0,0.5],[1,0.5]];portConstraint=eastwest;html=1;fontSize=22;" vertex="1" parent="1">
          <mxGeometry x="126" y="20" width="80" height="26" as="geometry" />
        </mxCell>
        <mxCell id="ennKq5sClsZa2-RZur2d-14" value="Access Home Page" style="rounded=1;whiteSpace=wrap;html=1;arcSize=40;fontColor=#000000;fillColor=#ffffc0;strokeColor=#ff0000;" vertex="1" parent="1">
          <mxGeometry x="440" y="620" width="120" height="40" as="geometry" />
        </mxCell>
        <mxCell id="ennKq5sClsZa2-RZur2d-15" value="" style="edgeStyle=orthogonalEdgeStyle;html=1;align=left;verticalAlign=top;endArrow=open;endSize=8;strokeColor=#ff0000;rounded=0;exitX=0.5;exitY=1;exitDx=0;exitDy=0;entryX=0.499;entryY=0.159;entryDx=0;entryDy=0;entryPerimeter=0;" edge="1" parent="1" source="ennKq5sClsZa2-RZur2d-14" target="ennKq5sClsZa2-RZur2d-23">
          <mxGeometry x="-1" relative="1" as="geometry">
            <mxPoint x="570.5900000000001" y="710" as="targetPoint" />
            <mxPoint x="530.5900000000001" y="670" as="sourcePoint" />
          </mxGeometry>
        </mxCell>
        <mxCell id="ennKq5sClsZa2-RZur2d-16" value="Play Game" style="rounded=1;whiteSpace=wrap;html=1;arcSize=40;fontColor=#000000;fillColor=#ffffc0;strokeColor=#ff0000;" vertex="1" parent="1">
          <mxGeometry x="1290" y="830" width="120" height="40" as="geometry" />
        </mxCell>
        <mxCell id="ennKq5sClsZa2-RZur2d-17" value="" style="edgeStyle=orthogonalEdgeStyle;html=1;verticalAlign=bottom;endArrow=open;endSize=8;strokeColor=#ff0000;rounded=0;entryX=0.5;entryY=0;entryDx=0;entryDy=0;exitX=0.927;exitY=0.529;exitDx=0;exitDy=0;exitPerimeter=0;" edge="1" parent="1" target="ennKq5sClsZa2-RZur2d-16">
          <mxGeometry relative="1" as="geometry">
            <mxPoint x="1350.5900000000001" y="867.8000000000001" as="targetPoint" />
            <mxPoint x="1349.92" y="735.29" as="sourcePoint" />
          </mxGeometry>
        </mxCell>
        <mxCell id="ennKq5sClsZa2-RZur2d-18" value="Access Settings" style="rounded=1;whiteSpace=wrap;html=1;arcSize=40;fontColor=#000000;fillColor=#ffffc0;strokeColor=#ff0000;" vertex="1" parent="1">
          <mxGeometry x="160" y="803" width="120" height="40" as="geometry" />
        </mxCell>
        <mxCell id="ennKq5sClsZa2-RZur2d-19" value="Access Leaderboard" style="rounded=1;whiteSpace=wrap;html=1;arcSize=40;fontColor=#000000;fillColor=#ffffc0;strokeColor=#ff0000;" vertex="1" parent="1">
          <mxGeometry x="310" y="801.82" width="120" height="40" as="geometry" />
        </mxCell>
        <mxCell id="ennKq5sClsZa2-RZur2d-20" value="" style="edgeStyle=orthogonalEdgeStyle;html=1;verticalAlign=bottom;endArrow=open;endSize=8;strokeColor=#ff0000;rounded=0;entryX=0.5;entryY=0;entryDx=0;entryDy=0;exitX=0.464;exitY=0.654;exitDx=0;exitDy=0;exitPerimeter=0;" edge="1" parent="1" target="ennKq5sClsZa2-RZur2d-19">
          <mxGeometry relative="1" as="geometry">
            <mxPoint x="420.03999999999996" y="837.3199999999999" as="targetPoint" />
            <mxPoint x="370.4399999999998" y="736.54" as="sourcePoint" />
            <Array as="points">
              <mxPoint x="370" y="778" />
            </Array>
          </mxGeometry>
        </mxCell>
        <mxCell id="ennKq5sClsZa2-RZur2d-21" value="Customize Character" style="rounded=1;whiteSpace=wrap;html=1;arcSize=40;fontColor=#000000;fillColor=#ffffc0;strokeColor=#ff0000;" vertex="1" parent="1">
          <mxGeometry x="460" y="801.82" width="120" height="40" as="geometry" />
        </mxCell>
        <mxCell id="ennKq5sClsZa2-RZur2d-22" style="edgeStyle=orthogonalEdgeStyle;rounded=0;orthogonalLoop=1;jettySize=auto;html=1;exitX=0.5;exitY=1;exitDx=0;exitDy=0;" edge="1" parent="1" source="ennKq5sClsZa2-RZur2d-19" target="ennKq5sClsZa2-RZur2d-19">
          <mxGeometry relative="1" as="geometry" />
        </mxCell>
        <mxCell id="ennKq5sClsZa2-RZur2d-23" value="" style="shape=line;html=1;strokeWidth=6;strokeColor=#ff0000;" vertex="1" parent="1">
          <mxGeometry x="160" y="730" width="1360" height="10" as="geometry" />
        </mxCell>
        <mxCell id="ennKq5sClsZa2-RZur2d-24" value="" style="edgeStyle=orthogonalEdgeStyle;html=1;verticalAlign=bottom;endArrow=open;endSize=8;strokeColor=#ff0000;rounded=0;entryX=0.5;entryY=0;entryDx=0;entryDy=0;exitX=0.5;exitY=1;exitDx=0;exitDy=0;" edge="1" parent="1" source="ennKq5sClsZa2-RZur2d-16">
          <mxGeometry relative="1" as="geometry">
            <mxPoint x="1350" y="896.8200000000002" as="targetPoint" />
            <mxPoint x="1358.25" y="896.49" as="sourcePoint" />
          </mxGeometry>
        </mxCell>
        <mxCell id="ennKq5sClsZa2-RZur2d-25" value="" style="edgeStyle=orthogonalEdgeStyle;html=1;verticalAlign=bottom;endArrow=open;endSize=8;strokeColor=#ff0000;rounded=0;entryX=0;entryY=0.5;entryDx=0;entryDy=0;exitX=0;exitY=0.5;exitDx=0;exitDy=0;" edge="1" parent="1" source="ennKq5sClsZa2-RZur2d-55" target="ennKq5sClsZa2-RZur2d-14">
          <mxGeometry relative="1" as="geometry">
            <mxPoint x="369.36999999999966" y="1242.2800000000002" as="targetPoint" />
            <mxPoint x="378.07000000000016" y="910" as="sourcePoint" />
            <Array as="points">
              <mxPoint x="40" y="1180" />
              <mxPoint x="40" y="640" />
            </Array>
          </mxGeometry>
        </mxCell>
        <mxCell id="ennKq5sClsZa2-RZur2d-26" value="Quit" style="rounded=1;whiteSpace=wrap;html=1;arcSize=40;fontColor=#000000;fillColor=#ffffc0;strokeColor=#ff0000;" vertex="1" parent="1">
          <mxGeometry x="614.4099999999999" y="801.82" width="120" height="40" as="geometry" />
        </mxCell>
        <mxCell id="ennKq5sClsZa2-RZur2d-27" value="" style="ellipse;html=1;shape=endState;fillColor=#000000;strokeColor=#ff0000;" vertex="1" parent="1">
          <mxGeometry x="659.4099999999999" y="930" width="30" height="30" as="geometry" />
        </mxCell>
        <mxCell id="ennKq5sClsZa2-RZur2d-28" value="" style="edgeStyle=orthogonalEdgeStyle;html=1;verticalAlign=bottom;endArrow=open;endSize=8;strokeColor=#ff0000;rounded=0;exitX=0.5;exitY=1;exitDx=0;exitDy=0;entryX=0.5;entryY=0;entryDx=0;entryDy=0;" edge="1" parent="1" source="ennKq5sClsZa2-RZur2d-26" target="ennKq5sClsZa2-RZur2d-27">
          <mxGeometry relative="1" as="geometry">
            <mxPoint x="614.4099999999999" y="1285" as="targetPoint" />
            <mxPoint x="614.4099999999999" y="900" as="sourcePoint" />
            <Array as="points">
              <mxPoint x="674.4099999999999" y="890" />
              <mxPoint x="674.4099999999999" y="890" />
            </Array>
          </mxGeometry>
        </mxCell>
        <mxCell id="ennKq5sClsZa2-RZur2d-29" value="" style="edgeStyle=orthogonalEdgeStyle;html=1;verticalAlign=bottom;endArrow=open;endSize=8;strokeColor=#ff0000;rounded=0;entryX=0.5;entryY=0;entryDx=0;entryDy=0;exitX=0.044;exitY=0.571;exitDx=0;exitDy=0;exitPerimeter=0;" edge="1" parent="1" source="ennKq5sClsZa2-RZur2d-23" target="ennKq5sClsZa2-RZur2d-18">
          <mxGeometry relative="1" as="geometry">
            <mxPoint x="66" y="850" as="targetPoint" />
            <mxPoint x="200.4000000000001" y="730.0000000000002" as="sourcePoint" />
          </mxGeometry>
        </mxCell>
        <mxCell id="ennKq5sClsZa2-RZur2d-30" value="Change Settings" style="rounded=1;whiteSpace=wrap;html=1;arcSize=40;fontColor=#000000;fillColor=#ffffc0;strokeColor=#ff0000;" vertex="1" parent="1">
          <mxGeometry x="160" y="898" width="120" height="40" as="geometry" />
        </mxCell>
        <mxCell id="ennKq5sClsZa2-RZur2d-31" value="" style="edgeStyle=orthogonalEdgeStyle;html=1;verticalAlign=bottom;endArrow=open;endSize=8;strokeColor=#ff0000;rounded=0;entryX=0.5;entryY=0;entryDx=0;entryDy=0;exitX=0.497;exitY=0.968;exitDx=0;exitDy=0;exitPerimeter=0;" edge="1" parent="1" source="ennKq5sClsZa2-RZur2d-18" target="ennKq5sClsZa2-RZur2d-30">
          <mxGeometry relative="1" as="geometry">
            <mxPoint x="242.15999999999985" y="921.72" as="targetPoint" />
            <mxPoint x="240" y="853" as="sourcePoint" />
            <Array as="points">
              <mxPoint x="220" y="853" />
              <mxPoint x="220" y="853" />
            </Array>
          </mxGeometry>
        </mxCell>
        <mxCell id="ennKq5sClsZa2-RZur2d-32" value="" style="edgeStyle=orthogonalEdgeStyle;html=1;verticalAlign=bottom;endArrow=open;endSize=8;strokeColor=#ff0000;rounded=0;entryX=0.5;entryY=0;entryDx=0;entryDy=0;exitX=0.5;exitY=1;exitDx=0;exitDy=0;" edge="1" parent="1" source="ennKq5sClsZa2-RZur2d-30" target="ennKq5sClsZa2-RZur2d-33">
          <mxGeometry relative="1" as="geometry">
            <mxPoint x="220" y="993" as="targetPoint" />
            <mxPoint x="260" y="962" as="sourcePoint" />
            <Array as="points" />
          </mxGeometry>
        </mxCell>
        <mxCell id="ennKq5sClsZa2-RZur2d-33" value="Confirm&lt;div&gt;Settings&lt;/div&gt;" style="rhombus;whiteSpace=wrap;html=1;fontColor=#000000;fillColor=#ffffc0;strokeColor=#ff0000;" vertex="1" parent="1">
          <mxGeometry x="179.41000000000008" y="993" width="81.18" height="70" as="geometry" />
        </mxCell>
        <mxCell id="ennKq5sClsZa2-RZur2d-34" value="" style="edgeStyle=orthogonalEdgeStyle;html=1;verticalAlign=bottom;endArrow=open;endSize=8;strokeColor=#ff0000;rounded=0;entryX=0;entryY=0.5;entryDx=0;entryDy=0;exitX=0;exitY=0.5;exitDx=0;exitDy=0;" edge="1" parent="1" source="ennKq5sClsZa2-RZur2d-33" target="ennKq5sClsZa2-RZur2d-30">
          <mxGeometry relative="1" as="geometry">
            <mxPoint x="230" y="1003" as="targetPoint" />
            <mxPoint x="230" y="948" as="sourcePoint" />
            <Array as="points">
              <mxPoint x="110" y="1028" />
              <mxPoint x="110" y="918" />
            </Array>
          </mxGeometry>
        </mxCell>
        <mxCell id="ennKq5sClsZa2-RZur2d-35" value="Settings Not OK" style="edgeLabel;html=1;align=center;verticalAlign=middle;resizable=0;points=[];" vertex="1" connectable="0" parent="ennKq5sClsZa2-RZur2d-34">
          <mxGeometry x="-0.2248" relative="1" as="geometry">
            <mxPoint x="10" y="-25" as="offset" />
          </mxGeometry>
        </mxCell>
        <mxCell id="ennKq5sClsZa2-RZur2d-36" value="" style="edgeStyle=orthogonalEdgeStyle;html=1;verticalAlign=bottom;endArrow=open;endSize=8;strokeColor=#ff0000;rounded=0;entryX=0.5;entryY=0;entryDx=0;entryDy=0;exitX=0.464;exitY=0.654;exitDx=0;exitDy=0;exitPerimeter=0;" edge="1" parent="1" target="ennKq5sClsZa2-RZur2d-26">
          <mxGeometry relative="1" as="geometry">
            <mxPoint x="674.1799999999998" y="798.82" as="targetPoint" />
            <mxPoint x="674.6199999999999" y="733.36" as="sourcePoint" />
            <Array as="points">
              <mxPoint x="675" y="770" />
              <mxPoint x="674" y="770" />
            </Array>
          </mxGeometry>
        </mxCell>
        <mxCell id="ennKq5sClsZa2-RZur2d-37" value="Pause the game" style="rounded=1;whiteSpace=wrap;html=1;arcSize=40;fontColor=#000000;fillColor=#ffffc0;strokeColor=#ff0000;" vertex="1" parent="1">
          <mxGeometry x="1120" y="993" width="120" height="40" as="geometry" />
        </mxCell>
        <mxCell id="ennKq5sClsZa2-RZur2d-38" value="" style="shape=line;html=1;strokeWidth=6;strokeColor=#ff0000;" vertex="1" parent="1">
          <mxGeometry x="1170" y="898" width="360" height="10" as="geometry" />
        </mxCell>
        <mxCell id="ennKq5sClsZa2-RZur2d-39" value="" style="edgeStyle=orthogonalEdgeStyle;html=1;verticalAlign=bottom;endArrow=open;endSize=8;strokeColor=#ff0000;rounded=0;entryX=0.5;entryY=0;entryDx=0;entryDy=0;exitX=0.25;exitY=0.5;exitDx=0;exitDy=0;exitPerimeter=0;" edge="1" parent="1" source="ennKq5sClsZa2-RZur2d-38" target="ennKq5sClsZa2-RZur2d-37">
          <mxGeometry relative="1" as="geometry">
            <mxPoint x="1270" y="978" as="targetPoint" />
          </mxGeometry>
        </mxCell>
        <mxCell id="ennKq5sClsZa2-RZur2d-40" value="Finish the Level" style="rounded=1;whiteSpace=wrap;html=1;arcSize=40;fontColor=#000000;fillColor=#ffffc0;strokeColor=#ff0000;" vertex="1" parent="1">
          <mxGeometry x="1290" y="990" width="120" height="40" as="geometry" />
        </mxCell>
        <mxCell id="ennKq5sClsZa2-RZur2d-41" value="Return to Home Page" style="rounded=1;whiteSpace=wrap;html=1;arcSize=40;fontColor=#000000;fillColor=#ffffc0;strokeColor=#ff0000;" vertex="1" parent="1">
          <mxGeometry x="1450" y="990" width="120" height="40" as="geometry" />
        </mxCell>
        <mxCell id="ennKq5sClsZa2-RZur2d-42" value="" style="edgeStyle=orthogonalEdgeStyle;html=1;verticalAlign=bottom;endArrow=open;endSize=8;strokeColor=#ff0000;rounded=0;entryX=0.5;entryY=0;entryDx=0;entryDy=0;exitX=0.5;exitY=0.813;exitDx=0;exitDy=0;exitPerimeter=0;" edge="1" parent="1" source="ennKq5sClsZa2-RZur2d-38" target="ennKq5sClsZa2-RZur2d-40">
          <mxGeometry relative="1" as="geometry">
            <mxPoint x="1190" y="990" as="targetPoint" />
            <mxPoint x="1270" y="913" as="sourcePoint" />
          </mxGeometry>
        </mxCell>
        <mxCell id="ennKq5sClsZa2-RZur2d-43" value="" style="edgeStyle=orthogonalEdgeStyle;html=1;verticalAlign=bottom;endArrow=open;endSize=8;strokeColor=#ff0000;rounded=0;exitX=0.75;exitY=0.5;exitDx=0;exitDy=0;exitPerimeter=0;" edge="1" parent="1" source="ennKq5sClsZa2-RZur2d-38" target="ennKq5sClsZa2-RZur2d-41">
          <mxGeometry relative="1" as="geometry">
            <mxPoint x="1360" y="990" as="targetPoint" />
            <mxPoint x="1361" y="913" as="sourcePoint" />
          </mxGeometry>
        </mxCell>
        <mxCell id="ennKq5sClsZa2-RZur2d-44" value="" style="edgeStyle=orthogonalEdgeStyle;html=1;verticalAlign=bottom;endArrow=open;endSize=8;strokeColor=#ff0000;rounded=0;entryX=0.5;entryY=0;entryDx=0;entryDy=0;exitX=0.265;exitY=0.724;exitDx=0;exitDy=0;exitPerimeter=0;" edge="1" parent="1" source="ennKq5sClsZa2-RZur2d-23" target="ennKq5sClsZa2-RZur2d-21">
          <mxGeometry relative="1" as="geometry">
            <mxPoint x="519.69" y="798.64" as="targetPoint" />
            <mxPoint x="520" y="740" as="sourcePoint" />
            <Array as="points" />
          </mxGeometry>
        </mxCell>
        <mxCell id="ennKq5sClsZa2-RZur2d-45" value="" style="edgeStyle=orthogonalEdgeStyle;html=1;verticalAlign=bottom;endArrow=open;endSize=8;strokeColor=#ff0000;rounded=0;entryX=0;entryY=0.5;entryDx=0;entryDy=0;exitX=0;exitY=0.5;exitDx=0;exitDy=0;" edge="1" parent="1" source="ennKq5sClsZa2-RZur2d-48" target="ennKq5sClsZa2-RZur2d-16">
          <mxGeometry relative="1" as="geometry">
            <mxPoint x="1179.6399999999999" y="1134" as="targetPoint" />
            <mxPoint x="1179.6399999999999" y="1050" as="sourcePoint" />
            <Array as="points">
              <mxPoint x="1100" y="1125" />
              <mxPoint x="1100" y="850" />
            </Array>
          </mxGeometry>
        </mxCell>
        <mxCell id="ennKq5sClsZa2-RZur2d-46" value="Yes" style="edgeLabel;html=1;align=center;verticalAlign=middle;resizable=0;points=[];" vertex="1" connectable="0" parent="ennKq5sClsZa2-RZur2d-45">
          <mxGeometry x="-0.5175" y="3" relative="1" as="geometry">
            <mxPoint y="-1" as="offset" />
          </mxGeometry>
        </mxCell>
        <mxCell id="ennKq5sClsZa2-RZur2d-47" value="" style="edgeStyle=orthogonalEdgeStyle;html=1;verticalAlign=bottom;endArrow=open;endSize=8;strokeColor=#ff0000;rounded=0;entryX=0.5;entryY=0;entryDx=0;entryDy=0;exitX=0.5;exitY=1;exitDx=0;exitDy=0;" edge="1" parent="1" source="ennKq5sClsZa2-RZur2d-37" target="ennKq5sClsZa2-RZur2d-48">
          <mxGeometry relative="1" as="geometry">
            <mxPoint x="1180" y="1243" as="targetPoint" />
            <mxPoint x="1180" y="1033" as="sourcePoint" />
          </mxGeometry>
        </mxCell>
        <mxCell id="ennKq5sClsZa2-RZur2d-48" value="Continue the game" style="rhombus;whiteSpace=wrap;html=1;fontColor=#000000;fillColor=#ffffc0;strokeColor=#ff0000;" vertex="1" parent="1">
          <mxGeometry x="1129.71" y="1080" width="100.59" height="90" as="geometry" />
        </mxCell>
        <mxCell id="ennKq5sClsZa2-RZur2d-49" value="" style="edgeStyle=orthogonalEdgeStyle;html=1;verticalAlign=bottom;endArrow=open;endSize=8;strokeColor=#ff0000;rounded=0;entryX=0.5;entryY=1;entryDx=0;entryDy=0;exitX=1;exitY=0.5;exitDx=0;exitDy=0;" edge="1" parent="1" source="ennKq5sClsZa2-RZur2d-48" target="ennKq5sClsZa2-RZur2d-41">
          <mxGeometry relative="1" as="geometry">
            <mxPoint x="1090" y="1067" as="targetPoint" />
            <mxPoint x="1090" y="1020" as="sourcePoint" />
          </mxGeometry>
        </mxCell>
        <mxCell id="ennKq5sClsZa2-RZur2d-50" value="No" style="edgeLabel;html=1;align=center;verticalAlign=middle;resizable=0;points=[];" vertex="1" connectable="0" parent="ennKq5sClsZa2-RZur2d-49">
          <mxGeometry x="0.3631" y="1" relative="1" as="geometry">
            <mxPoint as="offset" />
          </mxGeometry>
        </mxCell>
        <mxCell id="ennKq5sClsZa2-RZur2d-51" value="" style="edgeStyle=orthogonalEdgeStyle;html=1;verticalAlign=bottom;endArrow=open;endSize=8;strokeColor=#ff0000;rounded=0;entryX=0;entryY=0.5;entryDx=0;entryDy=0;exitX=1;exitY=0.5;exitDx=0;exitDy=0;" edge="1" parent="1" source="ennKq5sClsZa2-RZur2d-40" target="ennKq5sClsZa2-RZur2d-41">
          <mxGeometry relative="1" as="geometry">
            <mxPoint x="1420" y="1124" as="targetPoint" />
            <mxPoint x="1420" y="1040" as="sourcePoint" />
          </mxGeometry>
        </mxCell>
        <mxCell id="ennKq5sClsZa2-RZur2d-52" value="" style="edgeStyle=orthogonalEdgeStyle;html=1;verticalAlign=bottom;endArrow=open;endSize=8;strokeColor=#ff0000;rounded=0;exitX=1;exitY=0.5;exitDx=0;exitDy=0;entryX=1;entryY=0.5;entryDx=0;entryDy=0;" edge="1" parent="1" source="ennKq5sClsZa2-RZur2d-41" target="ennKq5sClsZa2-RZur2d-14">
          <mxGeometry relative="1" as="geometry">
            <mxPoint x="1223" y="930" as="targetPoint" />
            <mxPoint x="1153" y="843" as="sourcePoint" />
            <Array as="points">
              <mxPoint x="1630" y="1010" />
              <mxPoint x="1630" y="640" />
            </Array>
          </mxGeometry>
        </mxCell>
        <mxCell id="ennKq5sClsZa2-RZur2d-53" value="" style="edgeStyle=orthogonalEdgeStyle;html=1;verticalAlign=bottom;endArrow=open;endSize=8;strokeColor=#ff0000;rounded=0;exitX=0.5;exitY=1;exitDx=0;exitDy=0;entryX=1;entryY=0.5;entryDx=0;entryDy=0;" edge="1" parent="1" source="ennKq5sClsZa2-RZur2d-58" target="ennKq5sClsZa2-RZur2d-55">
          <mxGeometry relative="1" as="geometry">
            <mxPoint x="519.9949999999997" y="930" as="targetPoint" />
            <mxPoint x="520" y="842" as="sourcePoint" />
          </mxGeometry>
        </mxCell>
        <mxCell id="ennKq5sClsZa2-RZur2d-54" value="" style="edgeStyle=orthogonalEdgeStyle;html=1;verticalAlign=bottom;endArrow=open;endSize=8;strokeColor=#ff0000;rounded=0;entryX=0.5;entryY=0;entryDx=0;entryDy=0;exitX=0.5;exitY=1;exitDx=0;exitDy=0;" edge="1" parent="1" source="ennKq5sClsZa2-RZur2d-19" target="ennKq5sClsZa2-RZur2d-55">
          <mxGeometry relative="1" as="geometry">
            <mxPoint x="369.36999999999966" y="1242.2800000000002" as="targetPoint" />
            <mxPoint x="370" y="842" as="sourcePoint" />
          </mxGeometry>
        </mxCell>
        <mxCell id="ennKq5sClsZa2-RZur2d-55" value="Return to Home Page" style="rounded=1;whiteSpace=wrap;html=1;arcSize=40;fontColor=#000000;fillColor=#ffffc0;strokeColor=#ff0000;" vertex="1" parent="1">
          <mxGeometry x="310" y="1150" width="120" height="40" as="geometry" />
        </mxCell>
        <mxCell id="ennKq5sClsZa2-RZur2d-56" value="Changes OK" style="edgeLabel;html=1;align=center;verticalAlign=middle;resizable=0;points=[];" vertex="1" connectable="0" parent="1">
          <mxGeometry x="519.9971428571423" y="1141" as="geometry" />
        </mxCell>
        <mxCell id="ennKq5sClsZa2-RZur2d-57" value="" style="edgeStyle=orthogonalEdgeStyle;html=1;verticalAlign=bottom;endArrow=open;endSize=8;strokeColor=#ff0000;rounded=0;entryX=0.5;entryY=0;entryDx=0;entryDy=0;exitX=0.5;exitY=1;exitDx=0;exitDy=0;" edge="1" parent="1" source="ennKq5sClsZa2-RZur2d-21" target="ennKq5sClsZa2-RZur2d-58">
          <mxGeometry relative="1" as="geometry">
            <mxPoint x="520" y="993" as="targetPoint" />
            <mxPoint x="520" y="938" as="sourcePoint" />
            <Array as="points" />
          </mxGeometry>
        </mxCell>
        <mxCell id="ennKq5sClsZa2-RZur2d-58" value="Confirm changes" style="rhombus;whiteSpace=wrap;html=1;fontColor=#000000;fillColor=#ffffc0;strokeColor=#ff0000;" vertex="1" parent="1">
          <mxGeometry x="479.4100000000001" y="993" width="81.18" height="70" as="geometry" />
        </mxCell>
        <mxCell id="ennKq5sClsZa2-RZur2d-59" value="" style="edgeStyle=orthogonalEdgeStyle;html=1;verticalAlign=bottom;endArrow=open;endSize=8;strokeColor=#ff0000;rounded=0;entryX=0.25;entryY=1;entryDx=0;entryDy=0;exitX=0;exitY=0.5;exitDx=0;exitDy=0;" edge="1" parent="1" source="ennKq5sClsZa2-RZur2d-58" target="ennKq5sClsZa2-RZur2d-21">
          <mxGeometry relative="1" as="geometry">
            <mxPoint x="460" y="918" as="targetPoint" />
            <mxPoint x="530" y="948" as="sourcePoint" />
            <Array as="points">
              <mxPoint x="410" y="1028" />
              <mxPoint x="410" y="918" />
              <mxPoint x="490" y="918" />
            </Array>
          </mxGeometry>
        </mxCell>
        <mxCell id="ennKq5sClsZa2-RZur2d-60" value="Changes not OK" style="edgeLabel;html=1;align=center;verticalAlign=middle;resizable=0;points=[];" vertex="1" connectable="0" parent="ennKq5sClsZa2-RZur2d-59">
          <mxGeometry x="-0.2248" relative="1" as="geometry">
            <mxPoint x="20" y="-22" as="offset" />
          </mxGeometry>
        </mxCell>
        <mxCell id="ennKq5sClsZa2-RZur2d-61" value="" style="edgeStyle=orthogonalEdgeStyle;html=1;verticalAlign=bottom;endArrow=open;endSize=8;strokeColor=#ff0000;rounded=0;entryX=0.25;entryY=0;entryDx=0;entryDy=0;exitX=0.5;exitY=1;exitDx=0;exitDy=0;" edge="1" parent="1" source="ennKq5sClsZa2-RZur2d-33" target="ennKq5sClsZa2-RZur2d-55">
          <mxGeometry relative="1" as="geometry">
            <mxPoint x="230" y="1003" as="targetPoint" />
            <mxPoint x="230" y="948" as="sourcePoint" />
            <Array as="points" />
          </mxGeometry>
        </mxCell>
        <mxCell id="ennKq5sClsZa2-RZur2d-62" value="&lt;div&gt;Settings OK&lt;/div&gt;" style="edgeLabel;html=1;align=center;verticalAlign=middle;resizable=0;points=[];" vertex="1" connectable="0" parent="ennKq5sClsZa2-RZur2d-61">
          <mxGeometry x="-0.3253" y="4" relative="1" as="geometry">
            <mxPoint x="34" as="offset" />
          </mxGeometry>
        </mxCell>
        <mxCell id="ennKq5sClsZa2-RZur2d-63" value="User Management" style="rounded=1;whiteSpace=wrap;html=1;arcSize=40;fontColor=#000000;fillColor=#ffffc0;strokeColor=#ff0000;" vertex="1" parent="1">
          <mxGeometry x="850" y="803" width="120" height="40" as="geometry" />
        </mxCell>
        <mxCell id="ennKq5sClsZa2-RZur2d-64" value="" style="edgeStyle=orthogonalEdgeStyle;html=1;verticalAlign=bottom;endArrow=open;endSize=8;strokeColor=#ff0000;rounded=0;entryX=0.5;entryY=0;entryDx=0;entryDy=0;exitX=0.551;exitY=0.471;exitDx=0;exitDy=0;exitPerimeter=0;" edge="1" parent="1" source="ennKq5sClsZa2-RZur2d-23" target="ennKq5sClsZa2-RZur2d-63">
          <mxGeometry relative="1" as="geometry">
            <mxPoint x="930" y="798.64" as="targetPoint" />
            <mxPoint x="931" y="730" as="sourcePoint" />
            <Array as="points" />
          </mxGeometry>
        </mxCell>
        <mxCell id="ennKq5sClsZa2-RZur2d-65" value="" style="shape=line;html=1;strokeWidth=6;strokeColor=#ff0000;" vertex="1" parent="1">
          <mxGeometry x="770" y="908" width="270" height="10" as="geometry" />
        </mxCell>
        <mxCell id="ennKq5sClsZa2-RZur2d-66" value="Create User" style="rounded=1;whiteSpace=wrap;html=1;arcSize=40;fontColor=#000000;fillColor=#ffffc0;strokeColor=#ff0000;" vertex="1" parent="1">
          <mxGeometry x="770" y="978" width="120" height="40" as="geometry" />
        </mxCell>
        <mxCell id="ennKq5sClsZa2-RZur2d-67" value="Ban User" style="rounded=1;whiteSpace=wrap;html=1;arcSize=40;fontColor=#000000;fillColor=#ffffc0;strokeColor=#ff0000;" vertex="1" parent="1">
          <mxGeometry x="940" y="978" width="120" height="40" as="geometry" />
        </mxCell>
        <mxCell id="ennKq5sClsZa2-RZur2d-68" value="" style="edgeStyle=orthogonalEdgeStyle;html=1;verticalAlign=bottom;endArrow=open;endSize=8;strokeColor=#ff0000;rounded=0;entryX=0.5;entryY=0;entryDx=0;entryDy=0;exitX=0.781;exitY=0.571;exitDx=0;exitDy=0;exitPerimeter=0;" edge="1" parent="1">
          <mxGeometry relative="1" as="geometry">
            <mxPoint x="830" y="978" as="targetPoint" />
            <mxPoint x="830" y="911" as="sourcePoint" />
            <Array as="points" />
          </mxGeometry>
        </mxCell>
        <mxCell id="ennKq5sClsZa2-RZur2d-69" value="" style="edgeStyle=orthogonalEdgeStyle;html=1;verticalAlign=bottom;endArrow=open;endSize=8;strokeColor=#ff0000;rounded=0;entryX=0.5;entryY=0;entryDx=0;entryDy=0;exitX=0.781;exitY=0.571;exitDx=0;exitDy=0;exitPerimeter=0;" edge="1" parent="1">
          <mxGeometry relative="1" as="geometry">
            <mxPoint x="999.71" y="978" as="targetPoint" />
            <mxPoint x="999.71" y="911" as="sourcePoint" />
            <Array as="points" />
          </mxGeometry>
        </mxCell>
        <mxCell id="ennKq5sClsZa2-RZur2d-70" value="" style="edgeStyle=orthogonalEdgeStyle;html=1;verticalAlign=bottom;endArrow=open;endSize=8;strokeColor=#ff0000;rounded=0;entryX=0.5;entryY=0;entryDx=0;entryDy=0;exitX=0.781;exitY=0.571;exitDx=0;exitDy=0;exitPerimeter=0;" edge="1" parent="1">
          <mxGeometry relative="1" as="geometry">
            <mxPoint x="909.71" y="908" as="targetPoint" />
            <mxPoint x="909.71" y="841" as="sourcePoint" />
            <Array as="points" />
          </mxGeometry>
        </mxCell>
        <mxCell id="ennKq5sClsZa2-RZur2d-71" value="Confirm changes" style="rhombus;whiteSpace=wrap;html=1;fontColor=#000000;fillColor=#ffffc0;strokeColor=#ff0000;" vertex="1" parent="1">
          <mxGeometry x="859.71" y="1090" width="100.59" height="90" as="geometry" />
        </mxCell>
        <mxCell id="ennKq5sClsZa2-RZur2d-72" value="" style="edgeStyle=orthogonalEdgeStyle;html=1;verticalAlign=bottom;endArrow=open;endSize=8;strokeColor=#ff0000;rounded=0;entryX=0.5;entryY=0;entryDx=0;entryDy=0;exitX=0.5;exitY=1;exitDx=0;exitDy=0;" edge="1" parent="1" source="ennKq5sClsZa2-RZur2d-66" target="ennKq5sClsZa2-RZur2d-71">
          <mxGeometry relative="1" as="geometry">
            <mxPoint x="840" y="988" as="targetPoint" />
            <mxPoint x="840" y="921" as="sourcePoint" />
            <Array as="points" />
          </mxGeometry>
        </mxCell>
        <mxCell id="ennKq5sClsZa2-RZur2d-73" value="" style="edgeStyle=orthogonalEdgeStyle;html=1;verticalAlign=bottom;endArrow=open;endSize=8;strokeColor=#ff0000;rounded=0;entryX=1;entryY=0.5;entryDx=0;entryDy=0;exitX=0.5;exitY=1;exitDx=0;exitDy=0;" edge="1" parent="1" source="ennKq5sClsZa2-RZur2d-67" target="ennKq5sClsZa2-RZur2d-71">
          <mxGeometry relative="1" as="geometry">
            <mxPoint x="870" y="1145" as="targetPoint" />
            <mxPoint x="840" y="1028" as="sourcePoint" />
            <Array as="points" />
          </mxGeometry>
        </mxCell>
        <mxCell id="ennKq5sClsZa2-RZur2d-74" value="" style="edgeStyle=orthogonalEdgeStyle;html=1;verticalAlign=bottom;endArrow=open;endSize=8;strokeColor=#ff0000;rounded=0;exitX=0.5;exitY=1;exitDx=0;exitDy=0;entryX=0.75;entryY=1;entryDx=0;entryDy=0;" edge="1" parent="1" source="ennKq5sClsZa2-RZur2d-71" target="ennKq5sClsZa2-RZur2d-41">
          <mxGeometry relative="1" as="geometry">
            <mxPoint x="1080" y="1250" as="targetPoint" />
            <mxPoint x="1010" y="1028" as="sourcePoint" />
            <Array as="points">
              <mxPoint x="910" y="1230" />
              <mxPoint x="1540" y="1230" />
            </Array>
          </mxGeometry>
        </mxCell>
        <mxCell id="ennKq5sClsZa2-RZur2d-75" value="Changes OK" style="edgeLabel;html=1;align=center;verticalAlign=middle;resizable=0;points=[];" vertex="1" connectable="0" parent="ennKq5sClsZa2-RZur2d-74">
          <mxGeometry x="0.0592" y="1" relative="1" as="geometry">
            <mxPoint as="offset" />
          </mxGeometry>
        </mxCell>
        <mxCell id="ennKq5sClsZa2-RZur2d-76" value="" style="edgeStyle=orthogonalEdgeStyle;html=1;verticalAlign=bottom;endArrow=open;endSize=8;strokeColor=#ff0000;rounded=0;entryX=0;entryY=0.5;entryDx=0;entryDy=0;exitX=0;exitY=0.5;exitDx=0;exitDy=0;" edge="1" parent="1" source="ennKq5sClsZa2-RZur2d-71" target="ennKq5sClsZa2-RZur2d-63">
          <mxGeometry relative="1" as="geometry">
            <mxPoint x="920" y="1100" as="targetPoint" />
            <mxPoint x="840" y="1028" as="sourcePoint" />
            <Array as="points">
              <mxPoint x="750" y="1135" />
              <mxPoint x="750" y="823" />
            </Array>
          </mxGeometry>
        </mxCell>
        <mxCell id="ennKq5sClsZa2-RZur2d-77" value="Changes not OK" style="edgeLabel;html=1;align=center;verticalAlign=middle;resizable=0;points=[];" vertex="1" connectable="0" parent="ennKq5sClsZa2-RZur2d-76">
          <mxGeometry x="-0.3334" y="-2" relative="1" as="geometry">
            <mxPoint as="offset" />
          </mxGeometry>
        </mxCell>
      </root>
    </mxGraphModel>
  </diagram>
</mxfile>
